<?xml version="1.0" standalone="no"?>
<!DOCTYPE svg PUBLIC "-//W3C//DTD SVG 20010904//EN"
 "http://www.w3.org/TR/2001/REC-SVG-20010904/DTD/svg10.dtd">
<svg version="1.0" xmlns="http://www.w3.org/2000/svg"
 width="482.000000pt" height="517.000000pt" viewBox="0 0 482.000000 517.000000"
 preserveAspectRatio="xMidYMid meet">

<g transform="translate(0.000000,517.000000) scale(0.100000,-0.100000)"
fill="#000000" stroke="none">
<path d="M2255 5078 c-125 -12 -317 -52 -465 -96 l-125 -37 -285 0 c-268 0
-287 -1 -316 -20 -64 -42 -529 -411 -594 -472 -19 -18 -38 -33 -42 -33 -4 0
-32 -23 -63 -51 -53 -50 -55 -54 -55 -103 0 -88 -5 -96 -61 -96 -53 0 -180
-24 -210 -40 -10 -6 -19 -17 -19 -24 0 -8 59 -81 131 -162 72 -82 135 -159
141 -171 9 -19 5 -29 -29 -70 -22 -26 -86 -104 -142 -171 -122 -147 -122 -156
-3 -137 42 7 109 16 149 20 86 8 87 7 97 -110 16 -189 87 -634 136 -861 96
-444 262 -901 441 -1217 167 -293 396 -570 606 -730 216 -165 511 -311 765
-378 l87 -23 78 23 c388 114 702 299 969 572 128 131 205 227 296 366 307 469
501 1020 627 1780 33 196 71 478 71 522 0 15 6 35 13 44 13 19 49 17 256 -14
40 -5 75 -8 78 -5 3 3 -44 64 -103 136 -60 72 -128 155 -152 185 l-42 53 62
75 c35 41 103 121 152 177 59 67 86 104 79 111 -13 13 -187 49 -240 49 l-43 0
0 70 0 69 -112 94 c-144 119 -496 403 -600 485 l-80 62 -274 0 -274 0 -132 35
c-192 50 -366 84 -493 95 -125 11 -154 11 -280 -2z m300 -38 c289 -27 804
-177 934 -270 71 -52 69 -39 77 -409 l7 -334 -59 40 c-172 117 -406 200 -744
265 -149 29 -483 31 -653 5 -298 -46 -653 -161 -792 -257 -24 -17 -46 -30 -49
-30 -3 0 -6 149 -6 330 l0 331 24 24 c90 90 538 241 857 289 192 29 243 31
404 16z m-1267 -241 c-2 -4 -19 -24 -39 -45 -25 -28 -54 -46 -105 -63 -137
-47 -201 -93 -213 -152 -6 -32 -10 -34 -96 -59 -107 -31 -168 -61 -212 -103
-33 -31 -33 -32 -33 -127 l0 -96 -70 10 -70 10 0 45 0 46 148 117 c81 64 232
184 337 267 l190 150 65 3 c97 4 100 4 98 -3z m2490 -77 c59 -49 159 -131 223
-183 392 -318 360 -289 357 -328 l-3 -35 -72 -11 -73 -11 0 92 c0 85 -2 95
-26 124 -32 38 -95 70 -194 100 -117 35 -120 37 -120 66 0 50 -85 113 -204
150 -40 13 -61 25 -66 40 -5 11 -22 35 -40 52 l-32 32 71 0 71 0 108 -88z
m-2568 -395 l0 -342 -62 -20 c-34 -11 -86 -34 -116 -52 -30 -18 -56 -33 -58
-33 -2 0 -4 148 -4 329 0 318 1 329 21 355 11 14 35 34 52 43 30 15 142 59
160 62 4 0 7 -153 7 -342z m-282 -199 l-3 -333 -110 -45 c-60 -25 -126 -53
-145 -61 l-35 -15 -3 323 c-1 199 2 331 8 342 13 24 76 58 175 92 129 44 116
79 113 -303z m1742 167 c209 -26 427 -84 610 -162 192 -82 259 -129 311 -219
l31 -55 -16 -220 c-30 -411 -115 -958 -182 -1177 -7 -23 -34 13 -34 45 0 19
-9 37 -25 51 -14 12 -25 29 -25 37 0 8 -11 22 -24 30 -22 15 -29 15 -73 2 -89
-28 -113 -41 -335 -191 -224 -151 -233 -156 -263 -155 -27 1 -25 3 16 15 44
14 129 88 129 113 0 5 11 18 25 29 17 13 21 22 13 25 -10 3 -9 9 5 24 9 11 14
23 10 27 -4 3 4 14 16 23 18 12 20 17 10 24 -11 8 -11 12 4 23 17 13 17 14 0
21 -16 6 -15 9 10 30 15 13 27 29 27 35 0 5 5 10 11 10 5 0 7 5 4 10 -4 6 -10
8 -15 5 -5 -3 -11 -1 -14 4 -4 5 3 12 14 16 28 9 25 18 -10 33 -26 12 -28 16
-17 33 10 17 9 22 -6 30 -16 10 -16 12 3 37 20 24 20 27 4 39 -15 11 -14 15
10 43 28 34 32 45 16 55 -7 4 4 23 25 46 30 33 33 42 23 58 -9 15 -7 25 10 53
26 42 28 68 5 68 -14 0 -12 5 9 28 44 47 78 104 78 132 0 37 -9 42 -39 21 -49
-34 -54 -35 -43 -14 6 11 18 26 27 33 23 19 45 65 45 95 0 30 -7 31 -34 6 -31
-28 -136 -93 -136 -84 0 4 9 23 20 41 49 81 100 328 71 346 -5 3 -19 -25 -31
-62 -27 -81 -84 -194 -111 -218 -17 -15 -16 -10 6 40 44 100 68 203 62 269 -3
33 -10 64 -16 70 -12 12 -12 11 -31 -73 -23 -98 -113 -250 -150 -250 -4 0 -1
28 6 63 17 77 18 217 2 268 -6 21 -19 46 -30 55 -17 16 -18 15 -18 -52 0 -76
-21 -178 -46 -226 -19 -37 -25 -30 -44 57 -21 99 -85 205 -125 205 -8 0 -15
-1 -15 -2 0 -2 9 -32 20 -68 20 -65 25 -162 11 -210 -7 -23 -9 -20 -27 28 -23
64 -77 132 -106 132 -18 0 -19 -4 -14 -32 15 -72 18 -214 6 -257 l-12 -44 -22
55 c-30 73 -75 128 -105 128 -19 0 -22 -4 -17 -22 32 -108 44 -231 30 -285
l-6 -23 -30 25 c-16 14 -39 25 -50 25 -18 0 -20 -4 -14 -39 9 -56 -9 -128 -56
-228 -43 -92 -52 -94 -64 -16 -9 58 -120 190 -167 197 -18 3 -59 10 -91 16
-76 13 -76 13 -76 -4 0 -8 -4 -17 -8 -20 -4 -2 -59 4 -122 14 -121 21 -157 38
-255 123 l-38 33 -8 170 c-5 93 -10 193 -13 221 -2 29 0 55 5 58 5 4 9 -10 9
-29 0 -41 16 -56 25 -24 23 75 47 109 107 150 162 109 535 225 847 263 148 18
335 18 481 0z m-2132 -177 l52 -13 0 -246 c0 -268 5 -298 55 -338 15 -11 41
-24 58 -30 38 -12 195 -31 254 -31 37 0 45 -4 58 -30 26 -49 20 -59 -60 -102
-31 -17 -58 -22 -115 -22 -86 -1 -139 19 -208 77 -28 24 -61 40 -100 49 -73
16 -287 16 -375 -1 -37 -7 -70 -12 -72 -10 -2 3 28 43 66 89 39 47 97 117 130
157 32 40 59 80 59 89 0 16 -56 86 -209 260 -39 45 -71 84 -71 86 0 3 30 10
67 16 38 7 79 14 93 16 46 8 264 -3 318 -16z m1966 -240 c28 -49 56 -138 56
-178 0 -15 -9 -35 -19 -44 -19 -18 -20 -17 -35 19 -9 21 -16 63 -16 94 0 31
-7 77 -15 104 -18 58 -4 61 29 5z m193 -101 c-5 -109 -19 -149 -46 -133 -15
10 -14 42 4 100 8 26 18 77 21 113 11 108 28 48 21 -80z m168 -58 c-20 -77
-39 -115 -64 -129 -37 -19 -32 19 13 103 24 45 48 98 52 117 l9 35 3 -31 c2
-18 -4 -60 -13 -95z m-500 74 c27 -30 65 -121 65 -154 0 -23 -30 -79 -42 -79
-17 0 -36 60 -41 135 -3 44 -9 90 -12 103 -10 30 1 28 30 -5z m570 -176 c-15
-52 -30 -98 -33 -104 -10 -15 -52 -26 -52 -14 0 5 23 53 50 107 28 54 50 104
51 113 0 10 2 11 5 4 3 -7 -7 -54 -21 -106z m-683 -32 c29 -63 34 -90 18 -115
-17 -27 -46 15 -58 83 -7 34 -15 76 -19 92 -6 28 -5 29 12 15 10 -8 31 -42 47
-75z m266 25 c4 0 13 9 20 20 15 25 29 26 34 3 3 -16 6 -15 26 5 28 28 32 28
32 -3 0 -27 18 -33 38 -13 14 14 15 4 3 -40 -11 -39 -5 -40 43 -7 45 30 46 30
46 4 0 -18 4 -20 25 -15 14 4 25 5 25 2 0 -2 -11 -29 -25 -60 -14 -31 -22 -56
-18 -56 4 0 20 12 35 27 24 23 28 24 28 9 0 -14 6 -17 25 -14 31 6 31 4 0 -49
-26 -46 -25 -49 7 -32 19 10 20 9 16 -21 -4 -27 -1 -33 20 -41 16 -6 22 -14
18 -25 -19 -50 -19 -65 3 -71 22 -6 22 -6 -5 -34 -15 -16 -23 -29 -16 -29 6 0
14 5 17 10 8 13 55 13 55 0 0 -6 -19 -31 -42 -56 -38 -42 -40 -46 -19 -43 39
6 34 -15 -13 -59 -25 -23 -43 -43 -41 -43 3 -1 10 -2 17 -3 32 -3 6 -49 -52
-88 l-25 -17 37 0 c47 -1 42 -23 -11 -51 l-36 -19 38 -1 c56 0 44 -19 -40 -60
-115 -58 -293 -91 -293 -55 0 8 -1 18 -2 22 -2 3 8 8 22 10 51 7 56 14 23 28
-39 16 -42 30 -10 39 22 6 22 7 -6 22 -27 15 -28 16 -10 29 17 13 17 15 -4 30
-29 20 -29 31 -1 38 21 6 22 7 3 27 -18 20 -18 21 1 34 10 8 30 24 44 36 25
21 25 21 3 17 -30 -7 -29 0 2 25 35 27 31 34 -17 30 l-43 -4 39 41 c43 44 44
57 2 41 -44 -16 -49 -12 -26 21 27 37 21 46 -26 31 -32 -9 -35 -9 -29 6 22 52
21 53 -25 37 -59 -21 -63 -19 -45 15 13 25 13 30 2 30 -8 0 -26 -9 -40 -20
-32 -25 -52 -26 -42 -2 4 9 9 26 12 37 3 15 0 14 -13 -7 -10 -14 -28 -31 -40
-37 -15 -7 -25 -22 -30 -46 -7 -38 -32 -58 -74 -61 -14 0 -33 -4 -42 -8 -16
-7 -18 -2 -18 53 0 58 11 79 24 46 9 -24 22 -18 46 23 26 42 50 123 50 166 0
29 0 29 20 11 20 -18 21 -18 35 1 14 18 14 17 15 -11 0 -42 15 -17 36 65 10
36 19 67 21 69 2 3 14 -6 28 -19 14 -13 25 -19 25 -14 0 5 7 18 16 29 11 15
17 17 22 8 5 -8 15 9 27 44 l19 56 13 -31 c7 -18 16 -32 21 -32z m498 -156
c-30 -45 -88 -104 -102 -104 -15 0 -19 37 -6 56 10 15 115 84 120 79 3 -2 -3
-16 -12 -31z m-1738 -63 c97 -70 115 -79 168 -85 32 -4 77 -11 99 -16 95 -21
117 -20 122 1 5 18 11 19 62 14 85 -10 87 -11 150 -86 45 -54 60 -80 65 -113
4 -24 18 -58 31 -77 30 -40 31 -54 5 -144 -18 -62 -19 -79 -9 -163 24 -199 -6
-302 -107 -369 -42 -28 -59 -34 -94 -31 -38 3 -45 7 -54 34 -6 17 -35 62 -63
101 -29 39 -53 78 -53 87 0 27 -29 64 -56 70 -14 4 -29 18 -34 31 -5 14 -16
25 -25 25 -11 0 -13 5 -5 26 16 40 12 52 -22 88 -71 73 -88 98 -88 132 0 22
-6 37 -18 43 -32 17 -90 112 -110 181 -11 36 -23 101 -27 144 -8 84 -9 86 -82
137 -24 16 -43 34 -43 39 0 6 18 10 39 10 33 0 57 -13 149 -79z m-671 -42 c63
-58 122 -81 222 -88 l85 -6 54 -92 c61 -105 62 -127 6 -138 -29 -5 -34 -10
-28 -23 4 -9 9 -29 12 -45 2 -15 13 -32 23 -38 11 -5 19 -15 19 -23 0 -7 20
-23 45 -35 25 -12 45 -29 45 -37 0 -8 12 -26 26 -39 22 -20 26 -34 28 -82 0
-32 -3 -74 -7 -93 -8 -33 -6 -36 22 -48 33 -15 78 -93 65 -114 -5 -7 -11 -31
-14 -53 l-5 -40 -22 36 c-13 20 -26 53 -31 75 l-8 39 -18 -34 c-12 -23 -16
-46 -13 -68 5 -31 4 -33 -11 -21 -26 20 -32 31 -32 61 0 50 -19 31 -43 -45 -3
-9 -16 -18 -29 -20 -15 -2 -22 -9 -20 -19 2 -14 -15 -18 -124 -24 -136 -8
-144 -12 -126 -62 9 -26 12 -28 62 -25 61 3 61 3 -20 -74 l-45 -43 27 -28 28
-27 48 47 49 48 44 -25 c62 -36 117 -35 158 3 17 16 31 37 31 47 0 15 3 15 24
-6 24 -22 64 -34 152 -46 38 -6 43 -10 54 -47 11 -39 11 -41 -19 -65 -26 -20
-32 -31 -32 -65 0 -23 -1 -61 -2 -84 -1 -51 16 -73 57 -73 23 0 41 9 61 30
l29 30 26 -57 c68 -149 221 -374 342 -504 130 -140 331 -273 524 -347 l81 -31
54 20 c166 63 353 185 500 327 l100 95 47 -46 c26 -26 53 -47 59 -47 6 0 14
17 18 38 9 58 60 132 89 132 14 0 36 4 50 10 17 6 26 6 26 0 0 -6 -4 -10 -8
-10 -5 0 -33 -30 -62 -66 -53 -65 -53 -66 -37 -92 9 -15 24 -27 35 -27 28 0
54 -26 48 -48 -6 -25 21 -67 44 -67 10 0 30 -16 44 -35 42 -54 79 -43 135 41
37 54 38 67 7 88 -24 15 -26 14 -55 -19 -34 -39 -46 -43 -55 -19 -7 17 5 44
28 64 22 17 20 43 -4 65 -20 18 -21 18 -49 -16 -27 -32 -30 -33 -47 -17 -14
12 -24 14 -37 7 -41 -23 -15 10 81 103 16 16 22 12 106 -63 49 -43 94 -79 101
-79 6 0 22 11 34 24 l22 23 -41 36 c-23 19 -37 38 -32 41 6 3 39 5 74 4 71 -2
88 4 88 32 0 44 -9 50 -80 50 l-68 0 -7 33 c-10 48 -43 96 -70 103 -13 3 -30
13 -37 21 -11 14 -10 15 10 9 15 -5 22 -3 22 6 0 7 8 23 18 35 l17 22 103 -84
c107 -88 125 -94 143 -48 14 37 13 37 -48 84 -119 92 -120 94 -97 168 7 21 54
-27 54 -55 0 -24 44 -59 61 -48 6 3 21 -4 35 -17 23 -22 24 -22 44 -4 28 25
25 46 -11 78 -21 18 -29 33 -25 43 4 10 -1 25 -10 36 -25 26 -14 29 31 8 67
-32 95 -24 95 30 0 11 -12 22 -32 30 -18 7 -42 16 -53 21 -47 21 -201 69 -222
69 -23 0 -23 1 -8 30 8 16 15 33 15 38 0 8 -42 4 -147 -13 -24 -4 -43 -6 -43
-3 0 2 22 72 50 155 51 157 115 410 149 598 23 128 71 462 71 500 0 14 2 25 5
25 3 0 25 -15 49 -34 54 -41 128 -60 210 -54 77 7 137 32 199 86 54 47 107 58
107 22 0 -35 -40 -332 -71 -525 -82 -515 -239 -1043 -416 -1400 -58 -117 -182
-318 -266 -432 -108 -147 -331 -366 -477 -470 -197 -140 -560 -305 -675 -306
-56 0 -267 73 -412 143 -337 164 -638 446 -863 808 -131 212 -269 524 -358
809 -51 163 -149 569 -176 728 -23 136 -86 602 -86 636 0 26 3 29 31 29 23 0
44 -11 76 -41z m1560 -54 c-28 -59 -55 -39 -51 40 1 28 3 52 3 55 1 2 15 -10
33 -27 l32 -32 -17 -36z m859 37 c-29 -55 -65 -90 -87 -85 -12 4 -18 11 -15
20 3 8 6 21 6 29 0 15 103 85 108 73 2 -4 -4 -21 -12 -37z m-1946 -1 c0 -15 3
-50 6 -77 5 -46 4 -48 -10 -30 -18 22 -23 136 -6 136 6 0 10 -13 10 -29z m-60
-54 c0 -20 13 -53 35 -87 19 -30 35 -64 35 -76 0 -12 7 -24 15 -28 8 -3 15
-14 15 -25 0 -11 5 -23 10 -26 6 -3 10 -19 10 -34 0 -15 7 -36 15 -47 8 -10
24 -49 35 -86 12 -37 28 -72 36 -79 8 -6 14 -22 14 -36 0 -13 6 -36 14 -51 13
-27 25 -87 29 -149 3 -36 19 -58 44 -58 26 0 57 -49 49 -79 -3 -14 -11 -26
-16 -26 -5 0 -7 7 -4 15 4 8 1 15 -5 15 -12 0 -72 63 -127 135 -36 47 -38 55
-44 138 -4 74 -8 92 -26 106 -12 9 -27 34 -33 54 -9 27 -18 37 -34 37 -29 0
-42 10 -72 50 -31 42 -31 50 -2 47 19 -2 23 4 31 47 9 44 7 53 -19 100 -15 28
-41 71 -57 95 -16 24 -28 44 -26 45 2 0 17 9 33 18 41 24 45 23 45 -15z m1334
-41 c-7 -19 30 -30 55 -17 28 16 33 14 21 -8 -15 -29 -13 -31 27 -31 35 0 36
-1 19 -19 -21 -23 -14 -41 17 -41 19 0 18 -3 -11 -33 -18 -18 -32 -36 -32 -39
0 -3 18 -4 40 -1 22 3 40 3 40 0 0 -3 -18 -20 -40 -37 -36 -29 -41 -30 -46
-13 -14 45 -38 93 -46 93 -4 0 -8 14 -8 31 0 22 -5 32 -19 36 -11 3 -22 14
-24 25 -4 15 -11 19 -24 14 -10 -4 -31 -10 -46 -13 -27 -5 -28 -4 -25 23 3 27
6 29 39 26 21 -2 40 1 44 7 9 16 25 13 19 -3z m-44 -85 c0 -10 -7 -38 -15 -62
-16 -46 -5 -38 27 20 9 17 22 31 29 31 8 0 6 -7 -5 -19 -13 -14 -16 -34 -14
-90 2 -39 5 -71 8 -71 2 0 19 14 37 32 37 36 54 32 29 -6 -21 -33 -20 -39 7
-30 l22 6 -22 -24 c-28 -30 -29 -41 -4 -33 11 3 22 1 26 -5 3 -5 1 -10 -4 -10
-6 0 -11 -8 -11 -17 0 -9 -8 -25 -17 -35 -15 -17 -15 -20 -3 -28 23 -14 3 -38
-68 -79 -59 -35 -81 -58 -44 -47 9 2 33 7 52 11 l35 6 -25 -20 c-23 -19 -24
-21 -5 -22 11 0 14 -3 8 -6 -26 -10 -12 -25 18 -21 l31 5 -23 -18 -24 -19 50
0 c28 0 56 5 61 10 15 15 46 1 42 -19 -2 -10 -23 -20 -63 -29 -72 -16 -103
-10 -111 22 -3 14 -20 38 -37 54 -43 40 -92 101 -92 115 0 6 18 18 40 26 48
18 166 90 147 91 -7 0 -22 -5 -33 -10 -30 -16 -22 -3 9 15 30 18 33 18 -48 0
-20 -5 -18 -2 10 14 43 24 30 26 -33 5 -61 -21 -81 -13 -28 10 43 20 57 43 19
32 -13 -4 -36 -9 -53 -12 -25 -4 -23 -1 18 21 26 14 47 28 47 32 0 3 -20 3
-45 0 -24 -4 -52 -4 -60 -1 -14 6 -14 9 0 30 17 26 5 33 -15 9 -18 -21 -30
-19 -30 8 -1 21 -1 21 -23 -5 -25 -31 -39 -35 -55 -15 -12 14 16 80 48 111 19
19 19 19 26 -22 8 -48 20 -47 30 3 6 33 29 63 40 52 3 -3 9 -27 12 -54 l7 -48
14 45 c19 65 61 107 61 61z m-250 -42 c0 -11 -4 -18 -10 -14 -5 3 -7 12 -3 20
7 21 13 19 13 -6z m-25 -73 c-4 -20 -12 -36 -17 -36 -5 0 -6 10 -3 23 4 12 9
30 12 40 9 32 15 11 8 -27z m346 -9 c-16 -16 -26 0 -10 19 9 11 15 12 17 4 2
-6 -1 -17 -7 -23z m-253 -70 c2 -9 10 -17 18 -17 8 0 14 -7 14 -15 0 -8 6 -15
13 -16 8 0 8 -2 -2 -6 -9 -4 -5 -12 15 -29 29 -23 29 -24 7 -30 -23 -6 -32
-24 -13 -24 15 0 12 -16 -6 -34 -8 -9 -11 -16 -5 -16 6 0 11 -10 11 -21 0 -12
11 -32 25 -45 14 -13 25 -27 25 -32 0 -6 8 -13 18 -17 15 -6 13 -10 -13 -31
-31 -24 -20 -33 17 -13 34 18 32 1 -3 -21 -25 -15 -47 -20 -83 -18 l-50 3 -12
57 c-13 54 -12 60 8 95 12 21 31 49 42 62 l21 24 -25 -13 c-14 -7 -33 -19 -43
-28 -26 -23 -30 -9 -5 23 l21 28 -24 -13 -24 -13 25 28 25 28 -40 -24 -40 -24
18 29 c18 28 18 28 -2 21 -25 -7 -27 3 -6 31 23 31 17 40 -10 14 -19 -18 -28
-21 -37 -12 -8 8 -4 21 16 51 25 35 32 39 64 37 26 -1 38 -7 40 -19z m347 7
c-19 -14 -19 -16 -2 -25 23 -13 22 -29 -3 -29 -15 0 -20 7 -20 28 0 33 7 42
29 42 13 -1 12 -4 -4 -16z m-1136 -71 c1 -31 6 -39 92 -129 17 -17 19 -29 13
-77 -5 -42 -4 -57 6 -57 7 0 25 -11 42 -25 16 -14 36 -25 43 -25 16 0 35 -30
35 -56 0 -9 16 -37 36 -61 51 -62 98 -152 82 -158 -79 -26 -156 -45 -183 -45
-56 0 -110 88 -91 148 7 19 -4 50 -40 115 -14 25 -94 396 -94 434 0 11 8 8 29
-9 22 -17 30 -32 30 -55z m871 57 c0 -5 -7 -10 -16 -10 -8 0 -12 5 -9 10 3 6
10 10 16 10 5 0 9 -4 9 -10z m266 -91 c4 -7 -1 -16 -11 -22 -17 -9 -16 -11 6
-28 22 -16 22 -18 6 -25 -17 -6 -17 -8 4 -30 l22 -24 -21 0 c-38 0 -65 67 -48
118 8 23 30 29 42 11z m-81 -128 c-3 -6 -14 -11 -23 -11 -15 1 -15 2 2 15 21
16 32 13 21 -4z m-361 -4 c7 -7 11 -18 8 -25 -2 -6 1 -12 8 -12 6 0 8 -5 4
-11 -3 -6 -1 -15 5 -19 7 -4 13 -18 15 -31 1 -14 6 -30 10 -37 4 -7 4 -17 0
-23 -3 -6 -1 -15 7 -19 10 -7 10 -11 0 -24 -11 -13 -11 -17 3 -22 13 -5 14
-10 5 -20 -6 -7 -11 -29 -12 -49 -1 -19 -5 -35 -10 -35 -5 0 -7 -6 -4 -14 3
-8 -1 -17 -10 -20 -11 -5 -13 -2 -8 11 13 31 18 167 7 203 -9 31 -10 26 -11
-46 -1 -121 -50 -246 -92 -232 -7 2 -2 15 15 34 54 65 72 165 51 292 -20 120
-19 128 9 99z m834 1 c-6 -17 -103 -56 -159 -63 -41 -6 -39 -4 35 29 43 19 81
37 84 40 11 12 44 6 40 -6z m-403 -28 c9 -27 -6 -50 -16 -24 -4 10 -8 25 -8
32 -1 20 17 14 24 -8z m401 -19 c-7 -11 -93 -41 -115 -40 -9 0 11 11 44 24 67
27 79 29 71 16z m-329 -37 c-3 -3 -12 -4 -19 -1 -8 3 -5 6 6 6 11 1 17 -2 13
-5z m313 1 c0 -7 -98 -50 -135 -59 -44 -11 -28 -1 50 33 71 31 85 35 85 26z
m-390 -15 c0 -5 -7 -10 -16 -10 -8 0 -12 5 -9 10 3 6 10 10 16 10 5 0 9 -4 9
-10z m841 -20 c21 -12 26 -46 7 -53 -7 -3 -1 -6 13 -6 38 -1 55 -25 40 -57
-14 -32 -14 -31 9 -37 23 -6 26 -35 7 -61 -12 -16 -10 -22 10 -42 34 -34 27
-55 -25 -81 -2 -1 4 -12 12 -26 22 -32 12 -54 -30 -69 -23 -8 -33 -17 -29 -26
23 -61 8 -86 -51 -86 -32 0 -34 -2 -34 -32 0 -45 -25 -67 -67 -61 -29 5 -33 3
-33 -17 0 -36 -25 -52 -61 -39 -27 11 -29 10 -29 -13 0 -28 -25 -43 -43 -25
-18 18 -25 13 -19 -15 4 -24 2 -26 -19 -22 -13 3 -32 9 -41 13 -14 6 -18 2
-18 -15 0 -20 -4 -22 -35 -16 -27 5 -35 4 -35 -8 0 -22 -17 -28 -39 -16 -14 7
-27 7 -45 -1 -20 -10 -30 -9 -51 5 -36 24 -27 42 19 38 21 -2 44 2 52 9 7 6
25 9 38 5 15 -4 28 0 36 9 7 8 23 15 35 15 13 0 26 7 29 16 4 10 14 14 26 11
24 -6 97 29 111 54 6 12 21 19 40 19 22 0 32 6 41 26 7 14 29 34 50 45 30 15
38 25 38 47 0 23 8 33 40 51 30 17 39 27 35 40 -3 10 3 25 14 35 16 15 18 22
9 41 -9 19 -6 29 12 54 l22 31 -23 19 c-23 18 -23 19 -5 46 15 23 16 29 5 36
-8 5 -18 9 -23 9 -5 0 -6 18 -2 40 6 36 4 40 -19 46 -27 7 -31 24 -15 55 12
22 15 23 41 9z m-463 -12 c-5 -13 -166 -70 -183 -65 -5 2 19 14 55 26 36 12
76 28 90 36 31 18 43 19 38 3z m-220 -13 c2 -1 -9 -5 -23 -7 -14 -3 -33 1 -42
8 -16 11 -13 12 22 7 22 -3 41 -7 43 -8z m615 -10 c-4 -19 0 -27 20 -36 22
-10 25 -17 20 -41 -4 -19 0 -35 11 -47 14 -16 15 -23 4 -46 -11 -25 -10 -29
10 -43 l22 -14 -21 -29 c-12 -18 -18 -37 -14 -49 3 -11 -1 -30 -10 -44 -9 -14
-14 -29 -11 -34 3 -5 -12 -21 -34 -36 -29 -19 -40 -33 -40 -51 0 -17 -9 -29
-30 -40 -16 -8 -37 -27 -46 -40 -10 -15 -26 -25 -39 -25 -21 0 -48 -18 -57
-37 -7 -18 -71 -43 -94 -37 -17 4 -26 1 -30 -10 -3 -9 -16 -16 -29 -16 -12 0
-28 -7 -35 -15 -8 -9 -22 -12 -41 -8 -19 3 -29 1 -29 -6 0 -7 -15 -11 -37 -10
-21 1 -48 -2 -60 -6 -14 -4 -23 -3 -23 3 0 6 18 13 40 17 22 4 42 11 46 16 3
5 18 9 34 9 16 0 32 5 35 10 3 6 17 10 29 10 13 0 29 7 36 15 7 8 19 15 27 15
7 0 36 18 64 40 28 22 57 40 65 40 8 0 17 7 20 15 3 8 21 24 40 36 19 11 34
26 34 33 0 7 11 23 25 36 14 13 25 29 25 37 0 7 5 13 10 13 6 0 10 14 10 30 0
17 9 39 21 51 20 20 20 21 3 34 -17 12 -17 14 0 40 16 24 16 28 2 44 -18 20
-21 57 -5 66 7 5 4 15 -9 29 -11 11 -22 35 -25 52 -5 26 -2 33 16 42 39 19 55
15 50 -13z m-944 -11 l-24 -27 28 7 c33 8 35 -5 5 -28 -23 -17 -23 -17 11 -11
l34 5 -22 -19 c-24 -21 -46 -27 -123 -36 -28 -2 -48 -1 -48 5 0 6 9 10 19 10
11 0 23 5 26 10 4 6 -8 10 -29 10 -33 0 -36 2 -36 30 0 28 3 30 38 31 20 0 57
9 82 19 61 26 68 25 39 -6z m-276 -51 c-9 -95 -62 -203 -99 -203 -24 0 -16 26
21 70 21 26 43 69 56 111 12 38 22 69 24 69 1 0 0 -21 -2 -47z m511 33 c-3 -7
-22 -16 -42 -20 -67 -11 -79 -6 -32 14 55 23 81 25 74 6z m311 5 c-6 -11 -109
-51 -128 -51 -16 1 104 60 121 60 7 0 11 -4 7 -9z m282 -36 c-5 -30 -3 -35 14
-35 14 0 19 -7 19 -28 0 -15 -5 -33 -12 -40 -9 -9 -7 -13 5 -18 18 -7 23 -49
7 -59 -6 -4 -5 -13 2 -25 10 -15 9 -23 -6 -39 -10 -11 -15 -27 -12 -38 4 -13
-5 -30 -29 -53 -19 -19 -35 -41 -35 -48 0 -7 -16 -20 -35 -29 -19 -9 -35 -22
-35 -28 0 -7 -11 -17 -25 -23 -23 -11 -24 -10 -13 8 7 11 16 20 20 20 4 0 32
25 63 56 41 41 54 61 50 75 -4 10 -3 24 2 31 13 22 11 108 -3 108 -20 0 -24
14 -15 47 6 22 5 35 -4 44 -8 8 -17 26 -20 40 -5 22 -1 30 27 47 18 12 35 22
37 22 2 0 1 -16 -2 -35z m30 13 c-3 -8 -6 -5 -6 6 -1 11 2 17 5 13 3 -3 4 -12
1 -19z m-597 -17 c0 -12 -37 -21 -80 -20 l-35 1 40 13 c48 16 75 18 75 6z m77
-7 c-3 -3 -12 -4 -19 -1 -8 3 -5 6 6 6 11 1 17 -2 13 -5z m188 -3 c-14 -14
-113 -51 -133 -50 -9 0 15 13 53 29 74 31 95 36 80 21z m-235 -20 c0 -9 -80
-25 -87 -17 -3 3 10 9 28 15 44 12 59 13 59 2z m426 -26 c-5 -18 -2 -25 8 -25
23 0 27 -15 15 -50 -10 -27 -9 -33 8 -45 17 -12 20 -24 18 -74 -2 -56 -5 -63
-43 -100 -42 -41 -68 -42 -31 -2 11 11 19 27 18 34 -1 6 2 20 6 31 6 13 3 21
-9 28 -13 7 -14 13 -5 30 9 17 8 23 -5 30 -9 5 -16 21 -16 36 0 16 -9 36 -22
46 l-22 19 39 34 c21 18 40 33 43 33 2 0 1 -11 -2 -25z m-656 -5 c0 -5 -4 -10
-10 -10 -5 0 -10 -4 -10 -10 0 -5 7 -10 15 -10 9 0 15 -9 15 -25 0 -30 -7 -31
-57 -6 -21 11 -50 22 -65 25 -42 9 -34 23 20 34 64 13 92 14 92 2z m440 0 c-8
-5 -22 -10 -30 -10 -13 0 -13 1 0 10 8 5 22 10 30 10 13 0 13 -1 0 -10z m-215
-10 c-28 -12 -55 -12 -55 0 0 6 17 10 38 9 30 0 33 -2 17 -9z m0 -30 c4 -6
-11 -10 -37 -10 -31 0 -39 3 -28 10 20 13 57 13 65 0z m336 -31 c11 -11 19
-22 17 -24 -5 -5 -163 -43 -166 -40 -2 2 115 81 126 84 1 1 11 -8 23 -20z
m-1632 -89 c4 0 14 12 21 28 12 24 14 25 18 7 2 -11 9 -26 15 -33 8 -11 12
-10 20 3 8 15 12 13 28 -14 10 -17 19 -35 19 -40 0 -19 -169 -48 -217 -36 -16
4 -20 10 -16 25 4 14 -3 30 -17 45 -23 24 -15 36 8 13 20 -20 25 18 6 49 -14
22 -9 20 27 -14 25 -24 49 -43 53 -43 8 0 5 29 -9 90 -3 14 4 1 15 -27 12 -29
25 -53 29 -53z m910 87 c-40 -27 -114 -67 -121 -65 -5 2 19 20 54 40 34 20 64
35 67 32 2 -2 2 -5 0 -7z m354 -4 c-13 -2 -35 -2 -50 0 -16 2 -5 4 22 4 28 0
40 -2 28 -4z m-443 -7 c0 -3 -15 -14 -32 -26 l-33 -22 30 26 c31 27 35 29 35
22z m81 -30 c-14 -16 -1 -50 21 -59 8 -3 6 -6 -4 -6 -10 -1 -23 -11 -29 -23
-10 -18 -8 -24 7 -35 16 -12 15 -13 -12 -13 -17 0 -35 5 -41 11 -6 6 -26 9
-44 7 l-34 -3 42 -24 c24 -14 41 -26 39 -28 -8 -8 -126 33 -126 43 0 14 -38
49 -46 41 -3 -3 -3 -20 1 -37 5 -24 13 -32 36 -37 16 -3 29 -10 29 -15 0 -6
12 -8 27 -5 18 3 36 -2 55 -16 34 -25 40 -54 7 -36 -18 9 -20 8 -15 -9 4 -11
2 -23 -3 -26 -13 -8 -62 15 -55 26 8 13 -16 38 -37 38 -29 0 -32 -19 -4 -32
43 -19 45 -89 3 -73 -10 4 -14 14 -11 25 4 15 -4 21 -43 33 -49 14 -66 8 -45
-17 8 -10 8 -16 -3 -25 -8 -6 -12 -21 -9 -31 7 -26 -5 -25 -34 2 -26 25 -86
48 -124 48 -52 0 -54 23 -10 89 23 33 41 62 41 65 0 29 -72 -39 -96 -90 -11
-22 -20 -32 -26 -26 -20 20 -2 57 42 90 25 19 45 40 45 48 0 13 33 43 48 44 4
0 7 -11 7 -23 0 -23 2 -24 53 -16 69 11 130 33 169 60 l30 22 -7 -22 c-9 -30
12 -27 87 13 69 38 87 44 69 22z m109 9 c0 -2 -10 -9 -22 -15 -22 -11 -22 -10
-4 4 21 17 26 19 26 11z m115 -4 c11 -5 20 -14 20 -22 0 -8 8 -13 18 -11 10 2
25 -2 32 -8 8 -6 24 -11 37 -9 13 1 30 -1 38 -4 8 -3 23 -8 33 -11 21 -7 23
-26 2 -26 -8 0 -15 -4 -15 -10 0 -5 7 -10 15 -10 22 0 18 -18 -5 -25 -15 -5
-19 -12 -14 -27 5 -17 3 -19 -17 -13 -13 4 -29 14 -37 21 -7 8 -20 14 -29 14
-11 0 -7 6 11 21 35 28 33 40 -8 37 -22 -1 -42 5 -54 15 -10 9 -25 17 -33 17
-8 0 -23 7 -33 15 -11 8 -31 15 -45 15 -44 0 3 27 49 28 8 0 24 -3 35 -7z
m135 -1 c0 -5 -13 -10 -29 -10 -17 0 -33 5 -36 10 -4 6 8 10 29 10 20 0 36 -4
36 -10z m-1097 -93 c-7 -11 -31 11 -49 44 -23 45 -16 47 21 4 18 -21 31 -43
28 -48z m1172 73 c18 -8 17 -9 -7 -9 -16 -1 -28 4 -28 9 0 12 8 12 35 0z m312
3 c-4 -3 -2 -12 4 -20 9 -10 6 -13 -17 -13 -16 0 -56 -11 -88 -25 -33 -13 -62
-22 -65 -20 -6 7 -4 9 74 49 63 32 109 47 92 29z m-1092 -50 c-10 -7 -22 -10
-26 -7 -16 10 -9 31 14 41 17 8 23 7 26 -5 2 -9 -5 -21 -14 -29z m455 33 c0
-3 -7 -12 -16 -20 -19 -20 -40 -11 -23 10 10 13 39 20 39 10z m472 -32 c-23
-14 -52 -24 -65 -22 -17 3 -9 9 33 25 73 29 84 28 32 -3z m-1732 -18 c19 -51
-40 -76 -82 -33 l-23 22 34 3 c23 2 35 9 38 23 6 22 21 16 33 -15z m666 12
c-39 -20 -139 -38 -123 -21 9 8 121 41 147 42 8 0 -3 -9 -24 -21z m654 2 c0
-5 9 -10 19 -10 11 0 23 -4 26 -10 7 -12 -1 -12 -44 -4 -31 7 -44 34 -16 34 8
0 15 -4 15 -10z m-60 -30 c-9 -6 -19 -5 -28 3 -12 9 -11 12 5 18 24 9 43 -8
23 -21z m-1150 10 c0 -5 -4 -10 -10 -10 -5 0 -10 5 -10 10 0 6 5 10 10 10 6 0
10 -4 10 -10z m1794 1 c3 -5 -10 -12 -30 -15 -19 -4 -43 -10 -52 -13 -10 -4
-14 -2 -9 3 8 8 63 31 79 33 4 1 9 -3 12 -8z m-507 -35 c4 -4 8 -15 8 -24 0
-9 13 -23 28 -30 22 -11 26 -17 17 -27 -7 -8 -9 -28 -4 -50 5 -27 3 -40 -7
-46 -12 -8 -11 -11 4 -20 21 -12 23 -39 2 -39 -9 0 -12 -6 -9 -15 4 -8 1 -15
-6 -15 -9 0 -7 -7 4 -25 21 -31 20 -35 -4 -35 -11 0 -20 -4 -20 -9 0 -5 -9
-11 -20 -14 -14 -4 -20 0 -20 12 0 16 -101 91 -122 91 -6 0 -7 11 -4 25 7 29
-30 94 -54 95 -12 1 -12 3 2 14 10 7 15 15 12 18 -3 3 -7 19 -9 36 -3 27 -1
31 29 36 18 3 47 3 64 0 31 -6 45 7 22 21 -5 3 -10 10 -10 14 0 9 87 -2 97
-13z m46 13 c-8 -8 -16 -8 -30 0 -16 9 -14 10 12 11 21 0 26 -3 18 -11z m299
-5 c21 -3 55 -19 78 -35 68 -50 48 -109 -49 -144 -52 -18 -77 -19 -136 -3 -44
12 -50 20 -47 61 1 10 -5 29 -14 43 -15 23 -15 26 0 43 9 9 16 25 16 35 0 18
25 18 152 0z m-1162 -13 c0 -18 -18 -22 -62 -14 l-43 8 45 6 c25 3 48 7 53 7
4 1 7 -2 7 -7z m27 -33 c-67 -69 -85 -80 -55 -34 24 35 72 76 90 76 4 0 -12
-19 -35 -42z m590 36 c-3 -3 -12 -4 -19 -1 -8 3 -5 6 6 6 11 1 17 -2 13 -5z
m-657 -44 c0 -5 -25 -10 -56 -10 -34 0 -53 4 -49 10 3 6 28 10 56 10 27 0 49
-4 49 -10z m-33 -28 c10 -7 10 -12 -1 -27 -16 -23 -46 -14 -46 15 0 21 24 27
47 12z m1044 -2 c26 -15 24 -40 -3 -40 -13 0 -29 4 -37 9 -12 8 -12 12 -2 25
16 19 17 19 42 6z m444 0 c-3 -5 -11 -10 -16 -10 -6 0 -7 5 -4 10 3 6 11 10
16 10 6 0 7 -4 4 -10z m-840 -30 c-3 -5 -13 -10 -21 -10 -8 0 -12 5 -9 10 3 6
13 10 21 10 8 0 12 -4 9 -10z m749 -15 c-6 -16 -34 -21 -34 -7 0 13 11 22 26
22 8 0 11 -6 8 -15z m-407 -1 c-3 -3 -12 -4 -19 -1 -8 3 -5 6 6 6 11 1 17 -2
13 -5z m-1017 -24 c0 -5 -8 -10 -17 -10 -15 0 -16 2 -3 10 19 12 20 12 20 0z
m40 -6 c0 -8 -5 -12 -10 -9 -6 4 -8 11 -5 16 9 14 15 11 15 -7z m675 -4 c0
-22 -39 -19 -43 3 -3 15 1 18 20 15 12 -2 23 -10 23 -18z m375 6 c0 -15 -21
-26 -51 -26 -24 0 -25 16 -1 29 25 15 52 13 52 -3z m-80 -17 c0 -5 -4 -9 -10
-9 -5 0 -10 7 -10 16 0 8 5 12 10 9 6 -3 10 -10 10 -16z m-1059 -9 c10 -6 19
-16 19 -22 0 -7 -7 -5 -17 4 -10 9 -27 18 -38 21 -17 4 -18 5 -2 6 10 0 27 -4
38 -9z m-86 -12 c-11 -6 -30 -20 -42 -31 -13 -12 -23 -15 -23 -9 0 13 58 52
75 52 6 0 1 -6 -10 -12z m385 8 c0 -2 -13 -9 -29 -14 -23 -8 -31 -7 -35 4 -4
10 3 14 29 14 19 0 35 -2 35 -4z m945 -21 c36 -9 44 -14 30 -18 -25 -7 -87
-21 -100 -23 -5 0 -18 -4 -28 -9 -22 -9 -23 -8 -30 32 -9 46 7 48 128 18z
m235 15 c0 -5 -5 -10 -11 -10 -5 0 -7 5 -4 10 3 6 8 10 11 10 2 0 4 -4 4 -10z
m327 -22 c-28 -66 -98 -204 -115 -225 -12 -17 -37 -27 -92 -37 -41 -8 -88 -18
-103 -22 -22 -5 -34 -1 -55 18 -15 14 -35 28 -45 31 -26 10 -11 27 23 27 16 0
32 5 35 10 3 6 22 10 41 10 22 0 37 6 40 15 4 8 15 15 25 15 10 0 24 9 31 20
9 14 24 20 46 20 28 0 36 5 45 30 8 22 18 30 36 30 32 0 71 37 71 67 0 14 6
23 15 23 13 0 14 -4 2 -32z m-1684 7 c-3 -9 -8 -14 -10 -11 -3 3 -2 9 2 15 9
16 15 13 8 -4z m501 -1 c5 -14 4 -15 -9 -4 -17 14 -19 20 -6 20 5 0 12 -7 15
-16z m146 -4 c0 -5 -2 -10 -4 -10 -3 0 -8 5 -11 10 -3 6 -1 10 4 10 6 0 11 -4
11 -10z m-776 -15 c10 -8 22 -12 27 -10 4 3 10 1 14 -5 11 -18 -32 -11 -56 10
-27 22 -14 27 15 5z m88 -2 c2 -10 -2 -29 -9 -43 -12 -24 -13 -24 -13 18 0 42
14 58 22 25z m1001 -3 c-3 -11 -9 -22 -13 -25 -12 -7 -7 29 5 37 14 10 14 10
8 -12z m-888 -20 c8 -16 15 -37 14 -47 0 -11 -5 -6 -11 12 -6 17 -17 38 -26
48 -9 10 -11 17 -4 17 6 0 18 -13 27 -30z m104 -7 c8 -21 20 -46 29 -55 9 -11
11 -18 4 -18 -6 0 -18 11 -27 23 -8 13 -26 30 -40 37 -27 14 -33 35 -12 43 26
11 33 6 46 -30z m243 22 c0 -5 -5 -11 -11 -13 -6 -2 -11 4 -11 13 0 9 5 15 11
13 6 -2 11 -8 11 -13z m-624 -11 c-32 -17 -58 -61 -58 -98 0 -51 49 -45 75 9
18 39 30 47 20 13 -19 -61 -82 -89 -102 -45 -21 45 31 137 77 136 8 0 3 -6
-12 -15z m230 -11 c-5 -25 -28 -28 -28 -4 0 12 6 21 16 21 9 0 14 -7 12 -17z
m510 7 c6 0 12 -4 12 -9 0 -14 -64 -5 -68 9 -3 9 2 11 19 7 13 -4 30 -7 37 -7z
m712 -5 c-7 -9 -15 -13 -19 -10 -3 3 1 10 9 15 21 14 24 12 10 -5z m-1395 -14
c-14 -12 -73 -25 -60 -13 6 6 19 12 30 15 34 8 40 8 30 -2z m1340 -11 c-3 -5
-10 -10 -16 -10 -5 0 -9 5 -9 10 0 6 7 10 16 10 8 0 12 -4 9 -10z m-1109 -79
c15 -12 41 -21 58 -21 24 0 27 -3 16 -10 -19 -12 -47 -4 -87 27 -26 19 -33 31
-32 56 l1 32 9 -32 c5 -17 21 -41 35 -52z m60 65 c10 -8 17 -17 14 -19 -3 -3
-16 3 -29 14 -27 22 -15 26 15 5z m562 -2 c-3 -18 -17 -27 -63 -40 -16 -5 -34
-19 -40 -32 -5 -12 -14 -21 -20 -19 -15 5 -55 68 -49 78 3 5 31 9 62 10 31 0
66 4 77 9 30 13 37 12 33 -6z m322 12 c0 -3 -4 -8 -10 -11 -5 -3 -10 -1 -10 4
0 6 5 11 10 11 6 0 10 -2 10 -4z m100 -6 c-19 -13 -30 -13 -30 0 0 6 10 10 23
10 18 0 19 -2 7 -10z m1035 -7 c36 -17 41 -28 27 -51 -7 -9 -20 -2 -53 27 -48
44 -37 54 26 24z m-1381 -36 c15 -24 1 -31 -34 -17 -31 13 -34 18 -24 45 6 14
9 14 27 2 12 -8 25 -21 31 -30z m271 21 c-16 -4 -31 -5 -33 -3 -8 7 42 23 53
17 5 -3 -4 -9 -20 -14z m-1265 -18 c-9 -17 -30 -28 -30 -16 0 16 15 36 26 36
12 0 12 -4 4 -20z m335 0 c0 -7 -6 -15 -12 -17 -8 -3 -13 4 -13 17 0 13 5 20
13 18 6 -3 12 -11 12 -18z m10 -116 c99 -88 139 -131 147 -162 5 -18 12 -30
17 -28 4 3 12 2 18 -2 13 -9 -32 -82 -50 -82 -18 0 -101 113 -174 235 -79 131
-87 156 -36 109 21 -19 56 -51 78 -70z m68 95 c36 -19 66 -62 66 -94 -1 -30
-1 -30 -9 5 -11 46 -63 90 -99 84 -20 -3 -22 -2 -11 6 19 13 27 12 53 -1z
m137 -70 c28 -28 49 -54 45 -57 -3 -3 -20 11 -39 31 -19 20 -39 37 -44 37 -6
0 -16 9 -22 20 -19 36 7 22 60 -31z m370 15 c0 -2 -9 -4 -21 -4 -11 0 -18 4
-14 10 5 8 35 3 35 -6z m-500 -9 c-7 -8 -16 -12 -21 -9 -13 8 -1 24 18 24 13
0 13 -3 3 -15z m430 1 c0 -9 -64 -36 -86 -36 -12 0 -29 -7 -37 -15 -8 -8 -17
-11 -21 -8 -3 4 -6 -2 -6 -11 0 -12 -5 -16 -15 -12 -8 3 -15 0 -15 -7 0 -13
-20 12 -20 26 0 15 125 67 163 67 20 0 37 -2 37 -4z m207 -2 c-3 -3 -12 -4
-19 -1 -8 3 -5 6 6 6 11 1 17 -2 13 -5z m-662 -42 c-6 -7 -35 18 -35 31 0 5 9
2 20 -8 11 -10 18 -20 15 -23z m595 -24 c44 -22 78 -23 102 -1 11 10 18 12 18
4 0 -19 -46 -34 -83 -27 -46 9 -87 42 -86 69 1 20 2 20 8 -3 4 -15 21 -32 41
-42z m-514 -40 c31 -33 15 -29 -23 5 -16 15 -23 31 -22 56 l1 36 8 -33 c4 -19
21 -47 36 -64z m643 89 c-28 -21 -59 -36 -59 -29 0 9 37 30 54 31 5 1 7 0 5
-2z m-588 -24 c13 -16 12 -17 -3 -4 -17 13 -22 21 -14 21 2 0 10 -8 17 -17z
m379 2 c0 -8 -7 -15 -16 -15 -14 0 -14 3 -4 15 7 8 14 15 16 15 2 0 4 -7 4
-15z m280 -5 l25 -20 -40 16 c-49 20 -54 24 -29 24 10 0 30 -9 44 -20z m1050
-10 c0 -5 -4 -10 -10 -10 -5 0 -10 5 -10 10 0 6 5 10 10 10 6 0 10 -4 10 -10z
m-1724 -11 c8 -14 -11 -33 -25 -25 -11 7 -4 36 9 36 5 0 12 -5 16 -11z m764
-4 c14 -8 21 -14 15 -14 -5 0 -21 6 -35 14 -14 8 -20 14 -15 14 6 0 21 -6 35
-14z m-416 -8 c18 -13 17 -15 -13 -36 -33 -24 -78 -34 -87 -20 -2 5 2 22 11
39 17 33 56 41 89 17z m366 -65 c14 -7 42 -11 63 -9 33 2 36 1 21 -10 -23 -17
-37 -16 -79 1 -33 14 -55 42 -55 68 0 7 6 2 13 -12 7 -13 24 -30 37 -38z m129
34 c-2 -2 -20 -6 -39 -10 -25 -4 -31 -3 -20 4 14 9 69 15 59 6z m-809 -16 c0
-5 -5 -10 -11 -10 -5 0 -7 5 -4 10 3 6 8 10 11 10 2 0 4 -4 4 -10z m603 3 c-7
-2 -19 -2 -25 0 -7 3 -2 5 12 5 14 0 19 -2 13 -5z m262 -18 c14 -13 25 -34 24
-47 -1 -19 -2 -18 -10 7 -4 17 -21 38 -36 47 -15 10 -22 18 -15 18 7 0 24 -11
37 -25z m-835 0 c0 -8 -4 -15 -10 -15 -5 0 -7 7 -4 15 4 8 8 15 10 15 2 0 4
-7 4 -15z m140 7 c0 -4 -5 -13 -12 -20 -7 -7 -16 -12 -20 -12 -13 0 -9 28 5
33 19 8 27 8 27 -1z m1363 -52 c-33 -20 -55 -45 -75 -83 l-14 -28 -34 37 c-20
23 -29 39 -22 42 7 2 12 14 12 27 0 23 4 24 73 27 88 4 97 1 60 -22z m-1543 4
c0 -8 -5 -12 -10 -9 -6 4 -8 11 -5 16 9 14 15 11 15 -7z m117 -16 c-3 -7 -5
-2 -5 12 0 14 2 19 5 13 2 -7 2 -19 0 -25z m83 23 c0 -6 -5 -13 -11 -16 -6 -4
-8 -13 -5 -21 3 -8 1 -14 -4 -14 -6 0 -10 8 -10 18 -1 15 -2 15 -15 -2 -8 -11
-15 -16 -15 -11 0 11 41 55 52 55 4 0 8 -4 8 -9z m89 -12 c14 -17 189 -92 243
-104 9 -2 33 -15 55 -28 21 -14 81 -39 134 -56 l96 -32 74 36 c76 36 119 44
119 22 0 -14 -87 -101 -170 -169 -71 -58 -228 -152 -296 -178 l-54 -20 -65 27
c-51 21 -64 30 -59 42 19 43 16 82 -10 125 -14 25 -26 51 -26 58 0 8 -9 32
-21 53 -11 22 -23 67 -27 100 -7 56 -9 61 -47 82 -22 12 -33 23 -24 23 9 0 24
9 34 20 22 25 23 25 44 -1z m685 -8 c39 -41 33 -76 -14 -77 -26 -1 -28 -1 -7
3 21 3 27 10 27 28 0 13 -8 30 -18 37 -22 16 -36 38 -24 38 4 0 21 -13 36 -29z
m-86 -46 c11 -13 8 -12 -11 4 -15 14 -27 34 -26 45 0 19 1 18 10 -4 6 -13 18
-34 27 -45z m-78 35 c8 -5 11 -10 5 -10 -5 0 -17 5 -25 10 -8 5 -10 10 -5 10
6 0 17 -5 25 -10z m-735 -20 c3 -5 1 -10 -4 -10 -6 0 -11 5 -11 10 0 6 2 10 4
10 3 0 8 -4 11 -10z m145 -20 c0 -5 -4 -10 -10 -10 -5 0 -10 5 -10 10 0 6 5
10 10 10 6 0 10 -4 10 -10z m1392 -27 c17 -15 26 -73 11 -73 -5 0 -17 7 -27
15 -17 13 -23 13 -44 -1 -25 -16 -25 -16 -18 12 6 26 38 64 54 64 3 0 14 -7
24 -17z m-1592 -7 c0 -3 -4 -8 -10 -11 -5 -3 -10 -1 -10 4 0 6 5 11 10 11 6 0
10 -2 10 -4z m238 -55 c12 -34 5 -76 -16 -93 -14 -11 -15 -10 -7 7 15 35 9 84
-14 116 l-23 31 25 -17 c14 -9 30 -29 35 -44z m-128 -15 c0 -11 9 -34 20 -51
11 -16 20 -37 20 -46 0 -9 11 -38 25 -64 14 -26 24 -50 21 -52 -13 -14 -139
86 -161 128 -13 24 -12 28 5 44 11 10 20 31 20 46 0 15 6 29 13 32 18 6 37
-12 37 -37z m80 14 c0 -5 -7 -10 -16 -10 -8 0 -12 5 -9 10 3 6 10 10 16 10 5
0 9 -4 9 -10z m-37 -50 c-6 -7 -23 23 -23 40 0 8 6 4 13 -10 8 -14 12 -27 10
-30z m36 -18 c-21 -33 4 -99 44 -116 26 -12 28 -15 10 -15 -45 -2 -88 93 -63
139 6 12 14 20 17 17 2 -3 -1 -14 -8 -25z m91 -40 c0 -15 -2 -15 -10 -2 -13
20 -13 33 0 25 6 -3 10 -14 10 -23z m-40 -12 c0 -5 -8 -10 -17 -10 -15 0 -16
2 -3 10 19 12 20 12 20 0z m23 -37 c-7 -2 -19 -2 -25 0 -7 3 -2 5 12 5 14 0
19 -2 13 -5z m73 -78 c19 -75 -65 -85 -102 -13 l-16 33 40 -39 c35 -33 44 -37
57 -26 21 18 19 41 -10 86 l-26 39 26 -28 c13 -15 28 -39 31 -52z m-26 -17 c0
-13 -17 -9 -30 7 -6 8 -8 20 -4 26 5 9 11 7 21 -6 7 -11 13 -22 13 -27z"/>
<path d="M2078 4852 l-78 -3 0 -39 c0 -22 5 -41 10 -41 6 -1 16 -2 23 -3 8 -1
15 -41 21 -138 l9 -138 44 0 45 0 -6 88 c-13 198 -13 197 12 200 20 3 23 8 20
39 -3 42 2 40 -100 35z"/>
<path d="M2196 4851 c-5 -8 26 -257 40 -324 6 -27 7 -28 67 -25 l62 3 17 145
c9 80 17 160 17 178 1 31 0 32 -44 32 l-45 0 -1 -42 c-1 -24 -4 -56 -8 -73 -6
-25 -8 -20 -14 33 -4 35 -9 68 -13 73 -7 12 -71 12 -78 0z"/>
<path d="M2575 4835 c-18 -18 -25 -35 -25 -65 0 -36 2 -40 25 -40 14 0 28 -1
32 -2 4 -2 10 10 13 26 5 31 30 49 30 22 0 -18 -49 -119 -85 -176 -13 -20 -25
-50 -27 -66 -3 -25 1 -30 27 -35 17 -4 56 -7 88 -8 54 -1 57 0 57 23 0 32 12
38 55 30 30 -5 35 -10 35 -34 0 -23 5 -29 31 -34 46 -9 47 -8 51 21 4 31 28
44 28 15 0 -11 14 -32 31 -47 25 -20 40 -25 72 -23 57 4 80 38 85 126 3 37 11
76 18 87 19 26 18 85 -1 112 -19 27 -83 48 -117 40 -46 -12 -66 -100 -25 -111
40 -11 57 -7 57 13 0 11 5 23 10 26 11 7 13 -24 4 -49 -3 -9 -17 -16 -30 -16
-19 0 -24 -5 -24 -26 0 -15 7 -32 16 -39 13 -9 15 -21 9 -53 -9 -58 -28 -55
-19 3 7 49 9 48 -71 49 -33 1 -33 0 -19 157 l6 66 -52 7 c-29 4 -53 6 -55 4
-8 -11 -85 -220 -85 -232 0 -33 -13 -46 -46 -46 -19 0 -34 3 -34 6 0 3 18 36
40 72 22 37 42 82 46 100 18 91 -89 160 -151 97z m231 -223 c-12 -11 -17 7 -9
34 l8 29 3 -28 c2 -16 1 -31 -2 -35z"/>
<path d="M1843 4821 c-59 -37 -52 -142 12 -184 43 -27 44 -35 3 -39 -28 -2
-34 -8 -36 -30 -2 -20 -10 -30 -28 -34 -29 -7 -29 -7 -38 28 -5 21 -2 28 15
33 16 5 19 14 17 38 -2 25 -8 33 -28 36 -45 6 -55 47 -14 57 17 4 23 11 20 21
-3 8 -6 20 -6 26 -1 34 -16 37 -78 16 -34 -11 -62 -24 -62 -29 0 -14 78 -331
82 -336 3 -2 34 6 69 19 48 18 63 28 61 40 -4 21 11 22 28 2 7 -9 29 -15 55
-15 58 0 95 34 95 88 0 66 -17 99 -71 132 -40 24 -49 35 -48 57 l1 28 10 -27
c7 -21 16 -28 36 -28 15 0 32 4 38 8 19 12 4 71 -24 92 -31 25 -68 25 -109 1z
m83 -246 c6 -24 0 -44 -10 -34 -11 11 -17 59 -7 59 6 0 13 -11 17 -25z"/>
<path d="M3735 2282 c-38 -24 -77 -101 -73 -144 2 -23 11 -36 36 -50 27 -15
32 -15 32 -3 0 21 8 19 45 -9 57 -44 135 -86 159 -86 13 0 35 9 50 21 22 17
26 28 26 74 0 29 -6 68 -14 87 -17 39 -84 104 -122 118 -40 16 -106 11 -139
-8z m112 -72 c27 0 73 -56 73 -89 0 -17 -4 -31 -8 -31 -5 0 -35 18 -66 40 -56
39 -59 40 -82 25 -26 -17 -31 -7 -13 26 12 23 47 40 67 33 8 -2 20 -4 29 -4z"/>
<path d="M1077 2080 c-6 -23 -46 -27 -76 -8 -15 9 -33 7 -88 -11 -38 -12 -74
-26 -81 -30 -20 -12 -18 -40 8 -108 22 -62 23 -63 61 -63 34 0 39 3 39 23 -1
12 -7 33 -15 47 -20 36 -18 42 12 38 20 -2 29 -11 38 -37 14 -43 34 -56 69
-47 21 5 26 11 21 24 -17 43 -17 72 -2 72 8 0 19 12 24 27 9 26 10 24 29 -32
19 -60 19 -60 62 -63 23 -2 42 1 42 6 0 5 -13 46 -30 92 -16 46 -30 85 -30 87
0 1 -17 3 -39 3 -30 0 -40 -4 -44 -20z"/>
<path d="M1167 1883 c-24 -4 -28 -8 -23 -28 6 -24 -4 -28 -166 -51 -26 -3 -55
-12 -64 -18 -15 -11 -15 -16 -3 -42 16 -31 37 -35 112 -20 36 7 38 6 32 -14
-10 -30 18 -57 76 -74 80 -24 151 7 169 74 9 34 8 47 -11 89 -31 73 -60 93
-122 84z m49 -147 c-7 -30 -34 -40 -70 -27 -34 14 -33 27 4 35 25 4 30 10 30
34 0 16 3 32 7 35 11 12 36 -51 29 -77z"/>
<path d="M1310 1630 c-8 -5 -25 -10 -37 -10 -12 0 -61 -14 -108 -31 -68 -25
-89 -37 -100 -60 -23 -44 -19 -85 14 -121 28 -31 33 -33 98 -32 72 1 183 25
230 49 15 8 36 15 46 15 14 0 17 5 12 23 -14 43 -25 48 -85 32 -119 -32 -211
-45 -232 -34 -35 19 -1 38 122 69 62 16 117 33 122 38 6 6 4 21 -6 41 -17 32
-46 40 -76 21z"/>
<path d="M1455 1420 c-3 -5 -16 -10 -29 -10 -29 0 -39 -10 -25 -27 8 -9 8 -13
1 -13 -6 0 -50 -14 -97 -31 -74 -27 -88 -35 -99 -63 -22 -51 6 -101 76 -137
62 -32 118 -19 140 32 10 23 17 27 33 22 31 -11 63 -7 91 11 58 39 51 113 -18
183 -42 43 -61 52 -73 33z m34 -104 c8 -13 11 -32 8 -40 -8 -20 -47 -21 -72
-2 -18 13 -18 14 4 21 19 6 22 12 17 36 -5 26 -3 28 12 20 10 -5 24 -21 31
-35z m-99 -45 c0 -5 -7 -14 -15 -21 -8 -7 -15 -18 -15 -25 0 -20 -39 -25 -56
-8 -22 22 -13 35 32 49 50 15 54 16 54 5z"/>
<path d="M3100 1191 c-56 -56 -63 -88 -30 -131 17 -21 21 -23 31 -10 6 9 12
11 15 5 2 -6 23 -44 47 -85 66 -117 116 -129 182 -43 48 63 49 119 4 157 -17
14 -37 26 -46 26 -11 0 -13 7 -8 28 4 20 -1 38 -17 62 -21 31 -29 35 -76 38
-50 3 -53 2 -102 -47z m120 -65 c0 -38 -16 -57 -27 -31 -4 13 -13 15 -35 11
-21 -4 -27 -2 -22 7 17 30 39 47 61 47 20 0 23 -5 23 -34z m37 -86 c41 -18 47
-33 24 -61 l-18 -22 -26 48 c-28 50 -32 59 -19 53 4 -3 22 -11 39 -18z"/>
<path d="M1540 1164 c-139 -83 -148 -90 -156 -131 -6 -34 -4 -39 41 -78 43
-39 50 -42 76 -33 43 15 45 26 10 62 -17 18 -31 35 -31 38 0 4 50 34 110 69
61 34 113 65 115 69 8 12 -35 60 -54 60 -9 0 -59 -25 -111 -56z"/>
<path d="M2998 1088 c-19 -6 -28 -17 -28 -31 0 -28 30 -108 74 -194 19 -37 37
-78 41 -90 4 -16 14 -23 31 -23 29 0 64 16 64 29 0 5 -31 75 -70 155 -38 81
-70 151 -70 156 0 12 -6 12 -42 -2z"/>
<path d="M1785 1050 c-56 -28 -258 -163 -262 -175 -1 -5 8 -23 20 -39 l24 -29
35 26 c19 15 39 27 45 27 6 0 28 14 49 31 22 17 69 49 107 70 37 22 67 46 67
53 0 7 -10 22 -23 34 l-23 22 -39 -20z"/>
<path d="M1879 957 c-82 -30 -181 -118 -195 -171 -10 -40 9 -79 49 -101 32
-17 41 -18 82 -7 42 11 84 43 85 64 0 4 -14 15 -30 23 -28 15 -33 14 -60 -2
-71 -41 -40 33 35 85 59 40 123 44 84 5 -7 -7 -5 -15 6 -27 37 -37 95 -2 95
58 0 61 -80 99 -151 73z"/>
<path d="M2818 958 c-36 -13 -36 -31 3 -138 17 -47 33 -94 36 -105 12 -41 44
-74 78 -81 27 -5 42 0 79 25 58 40 60 44 41 81 l-16 31 -36 -21 c-20 -12 -41
-19 -48 -17 -6 3 -26 52 -45 108 -33 101 -46 130 -59 128 -3 0 -18 -5 -33 -11z"/>
<path d="M2060 805 c-48 -36 -92 -62 -101 -59 -17 5 -56 -28 -70 -59 -5 -12
-15 -30 -21 -40 -10 -12 -10 -22 -2 -35 17 -26 38 -26 78 2 21 14 43 23 51 20
7 -3 23 0 35 6 20 11 21 10 15 -12 -4 -12 -13 -33 -21 -45 -27 -43 -11 -72 38
-73 10 0 68 102 117 210 l44 94 -34 28 c-18 15 -36 28 -39 28 -3 0 -43 -29
-90 -65z m68 -42 c-41 -85 -52 -95 -76 -71 -10 10 -5 19 25 45 36 31 59 42 51
26z"/>
<path d="M2457 664 c-3 -4 -9 -33 -13 -65 -4 -33 -10 -59 -14 -59 -5 0 -16 22
-25 50 -10 30 -24 51 -35 55 -20 6 -60 -10 -60 -24 0 -5 18 -47 41 -93 44 -93
45 -101 34 -171 l-7 -48 38 3 39 3 36 141 c20 78 39 157 43 177 l7 37 -39 0
c-21 0 -42 -3 -45 -6z"/>
<path d="M2097 2269 c-9 -6 -26 -8 -36 -4 -23 7 -39 -14 -20 -26 28 -17 119 8
119 32 0 12 -41 11 -63 -2z"/>
<path d="M1926 2171 c-3 -4 3 -16 14 -26 16 -14 23 -16 32 -7 9 9 7 15 -8 27
-22 17 -31 18 -38 6z"/>
</g>
</svg>
